# xmcd CD database file
#
# Track frame offsets:
#	150
#	23934
#	49994
#	61719
#	74977
#	109054
#	129997
#	133927
#	152094
#	157257
#	185270
#	215579
#
# Disc length: 3002 seconds
#
# Revision: 0
# Processed by: cddbd v1.5.2PL0 Copyright (c) Steve Scherf et al.
# Submitted via: CDex 1.51
#
DISCID=b70bb80c
DTITLE=Ron Davis - Shimmering Rhythm
DYEAR=2005
DGENRE=Jazz
TTITLE0=Rhythmaron
TTITLE1=Oratio
TTITLE2=Shimmering Interlude #1
TTITLE3=Pawpwalk
TTITLE4=Les Angeliques
TTITLE5=Jeanamora
TTITLE6=Shimmering Interlude #2
TTITLE7=Chassal Siddur Pesach
TTITLE8=Shimmering Interlude #3
TTITLE9=Rhosymedre
TTITLE10=The Way You Look Tonight
TTITLE11=Chassal Chassal
EXTD=YEAR: 2005
EXTT0=
EXTT1=
EXTT2=
EXTT3=
EXTT4=
EXTT5=
EXTT6=
EXTT7=
EXTT8=
EXTT9=
EXTT10=
EXTT11=
PLAYORDER=
